<?xml version="1.0" standalone="no"?>
<!DOCTYPE svg PUBLIC "-//W3C//DTD SVG 20010904//EN"
 "http://www.w3.org/TR/2001/REC-SVG-20010904/DTD/svg10.dtd">
<svg version="1.0" xmlns="http://www.w3.org/2000/svg"
 width="460.000000pt" height="460.000000pt" viewBox="0 0 460.000000 460.000000"
 preserveAspectRatio="xMidYMid meet">
<metadata>
Created by potrace 1.11, written by Peter Selinger 2001-2013
</metadata>
<g transform="translate(0.000000,460.000000) scale(0.100000,-0.100000)"
fill="#000000" stroke="none">
<path d="M0 2669 l0 -1931 23 6 c12 4 80 11 152 16 77 5 158 17 200 29 41 13
98 21 139 21 63 0 73 3 101 29 40 37 83 51 165 51 37 0 84 7 103 15 45 19 68
19 42 1 -40 -27 -123 -48 -144 -36 -17 8 -24 7 -41 -10 -11 -11 -26 -20 -34
-20 -8 0 -13 -6 -12 -12 6 -29 19 -48 32 -48 8 0 14 -4 14 -10 0 -15 83 -12
125 6 20 8 34 10 30 4 -3 -6 -23 -17 -42 -25 -20 -9 -33 -18 -30 -22 4 -3 12
-1 19 4 7 6 29 14 48 18 34 6 34 6 10 -7 -44 -25 -80 -50 -80 -57 0 -7 71 -28
125 -37 36 -7 55 -40 55 -96 0 -21 5 -38 10 -38 6 0 10 9 10 19 0 11 5 23 11
26 6 4 8 13 5 21 -3 8 -2 14 3 14 5 0 18 -35 30 -77 11 -42 26 -81 32 -87 9
-8 10 -5 5 14 -22 83 -43 225 -36 249 7 23 8 21 15 -21 7 -49 24 -65 26 -25 1
21 1 21 8 -2 10 -36 36 -42 27 -7 -6 24 -4 27 12 21 12 -3 22 0 25 9 4 9 14
12 27 9 13 -3 19 -11 16 -19 -3 -8 -3 -21 1 -30 5 -13 10 -11 33 11 26 25 27
25 48 7 12 -11 22 -24 22 -29 0 -6 17 -40 37 -77 49 -89 148 -195 236 -252 39
-27 74 -51 77 -54 7 -8 101 -48 130 -55 19 -5 22 -4 10 4 -13 9 -12 11 4 11
14 0 17 5 12 25 -4 16 -2 25 5 25 6 0 9 9 6 20 -3 11 -1 23 5 26 5 3 7 12 4
20 -3 7 0 17 7 21 7 5 12 17 12 28 0 15 6 19 24 17 l23 -2 -23 21 -24 21 23
-6 c17 -3 22 -1 18 9 -2 7 2 16 10 19 16 6 44 -2 44 -13 0 -4 17 -13 37 -19
31 -10 38 -9 49 6 12 15 13 14 14 -9 0 -15 6 -29 14 -32 9 -3 12 -15 9 -31 -4
-20 -1 -26 13 -26 18 -1 18 -1 1 -14 -17 -14 -17 -15 4 -21 22 -7 22 -8 4 -21
-14 -11 -16 -16 -6 -28 7 -8 10 -23 7 -33 -3 -10 -1 -25 4 -33 5 -9 5 -19 -2
-28 -18 -21 4 -34 53 -30 39 3 44 6 51 36 5 17 13 32 20 32 7 0 6 5 -2 15 -11
13 -8 15 15 15 21 0 26 4 21 16 -3 9 -3 21 1 27 4 6 8 24 10 39 2 15 5 42 6
59 2 17 10 35 18 40 12 7 12 9 -1 9 -13 0 -13 1 0 10 13 9 13 11 0 20 -13 9
-13 10 0 10 11 0 12 2 3 8 -7 4 -14 19 -15 32 -3 21 1 25 22 23 24 -2 23 -1
-5 12 -21 10 -25 14 -11 15 15 0 16 3 6 15 -10 12 -9 16 4 21 15 6 15 8 -1 20
-17 13 -17 13 0 14 9 0 17 7 17 15 0 9 -6 12 -15 9 -8 -4 -15 -1 -15 4 0 6 8
12 17 14 13 2 8 8 -17 21 l-35 18 32 -6 c27 -6 32 -4 27 9 -3 9 -18 16 -33 16
l-26 1 25 13 24 14 -24 5 c-21 4 -20 4 7 6 17 0 34 5 37 9 2 4 -25 7 -62 5
-55 -2 -61 -1 -32 6 18 5 39 16 45 24 5 7 28 20 50 27 47 17 24 26 -28 12 -20
-6 -40 -6 -48 -1 -10 6 -2 9 23 9 20 0 40 5 43 10 3 6 17 10 31 10 13 0 24 5
24 10 0 6 -6 10 -14 10 -8 0 -16 6 -19 14 -4 10 -23 13 -72 11 -44 -1 -64 1
-62 9 2 6 12 10 22 8 12 -3 16 1 12 12 -5 11 3 16 31 19 32 3 34 5 15 12 -13
4 -23 11 -23 16 0 5 -9 9 -20 9 -15 0 -20 7 -20 25 0 27 -17 34 -26 10 -4 -8
-10 -13 -14 -10 -5 3 -11 2 -14 -3 -2 -4 -22 -8 -43 -9 -21 0 -28 1 -15 4 12
2 20 9 17 14 -4 5 -2 9 4 9 5 0 12 -4 16 -10 3 -5 14 -2 25 7 10 9 16 21 13
26 -3 5 4 6 16 2 18 -6 20 -4 12 17 -4 13 -14 23 -22 24 -8 0 -23 2 -34 3
l-20 2 20 8 c19 8 19 8 -2 15 -21 7 -28 18 -24 39 1 5 -3 6 -9 2 -5 -3 -10 2
-10 12 -1 17 -2 17 -15 -1 -8 -11 -17 -17 -20 -14 -3 3 4 17 16 32 12 15 19
30 15 33 -3 4 -6 0 -6 -7 0 -7 -3 -10 -7 -6 -4 3 -13 -4 -21 -16 -7 -13 -11
-15 -8 -5 3 9 1 17 -4 17 -5 0 -7 8 -4 18 5 14 4 15 -5 2 -9 -13 -11 -13 -11
0 0 10 -3 11 -8 4 -4 -6 -16 -16 -27 -23 -14 -9 -15 -11 -3 -7 15 4 16 1 8
-19 -5 -14 -6 -25 -1 -25 14 0 33 28 26 40 -3 5 -1 10 4 10 6 0 10 -11 9 -24
-1 -14 -7 -24 -12 -23 -5 1 -13 -9 -17 -23 -4 -16 -7 -19 -8 -7 -1 9 -5 17
-11 17 -5 0 -7 -8 -3 -17 4 -13 3 -15 -6 -7 -6 6 -13 21 -16 33 -2 12 -7 31
-10 42 -5 14 -2 19 13 19 15 0 18 6 14 30 -4 31 -22 42 -22 14 0 -9 -5 -12
-12 -8 -6 4 -17 -1 -25 -11 -12 -17 -13 -18 -13 -1 0 11 -4 15 -13 10 -8 -6
-8 -3 1 9 8 9 11 21 8 26 -4 5 -2 12 4 16 16 10 11 23 -7 20 -10 -1 -12 0 -5
2 6 3 13 19 13 36 l2 32 7 -35 c6 -28 8 -30 9 -10 2 40 57 57 168 55 51 -1 90
2 87 6 -3 5 4 9 16 9 13 0 19 4 14 12 -4 7 -3 8 4 4 14 -9 50 26 57 57 5 19 2
25 -16 30 -13 3 -29 1 -36 -5 -11 -8 -12 -7 -7 7 5 13 4 16 -4 11 -7 -4 -12
-2 -12 3 0 6 -7 11 -15 11 -8 0 -15 5 -15 11 0 5 -4 7 -10 4 -5 -3 -10 -1 -10
5 0 6 -4 9 -8 6 -5 -3 -21 1 -36 9 -18 9 -34 12 -44 6 -19 -9 -40 -4 -60 16
-8 7 -18 11 -23 8 -5 -4 -9 -1 -9 4 0 6 -11 11 -23 11 -30 0 -40 10 -26 26 14
17 -4 82 -28 100 -16 12 -14 13 21 14 21 0 64 -6 95 -14 31 -8 108 -17 171
-20 63 -3 139 -10 169 -17 33 -7 79 -9 115 -5 34 4 76 8 94 9 17 1 32 6 32 10
0 16 28 37 49 37 13 0 21 6 21 16 0 13 -7 15 -32 10 -18 -3 -35 -11 -38 -16
-8 -13 -77 -22 -112 -15 -19 5 -25 11 -21 23 3 10 2 13 -4 6 -13 -17 -44 -25
-57 -15 -10 7 -75 24 -101 25 -5 1 -13 5 -16 9 -3 4 -31 9 -62 10 -32 1 -57 5
-57 9 0 5 -22 8 -49 8 -31 0 -53 5 -61 15 -7 8 -16 13 -20 10 -4 -3 -13 2 -20
10 -7 8 -16 12 -21 10 -4 -3 -13 4 -19 15 -6 11 -16 18 -23 14 -7 -4 0 5 16
20 15 15 27 35 27 45 0 10 7 24 15 31 12 10 15 10 15 0 0 -9 14 -11 49 -8 27
3 55 1 63 -3 9 -5 18 -1 26 12 10 15 10 19 0 17 -7 -2 -16 -7 -20 -13 -5 -6
-8 -6 -8 2 0 17 29 31 51 26 13 -4 22 2 29 21 10 28 25 34 33 14 4 -10 7 -10
18 0 10 9 10 12 0 12 -7 0 -9 5 -6 10 3 6 15 10 26 10 11 0 17 -4 14 -10 -3
-5 0 -7 9 -4 8 3 16 -2 19 -13 4 -15 5 -15 6 -1 1 13 9 15 39 11 26 -4 43 0
53 10 8 8 24 17 36 21 28 9 36 33 15 45 -22 12 -190 17 -219 8 -14 -5 -24 -3
-30 6 -4 7 -29 25 -54 39 -75 44 -136 104 -141 140 -9 55 16 102 75 141 21 14
21 16 9 73 -25 110 -25 137 -2 219 17 59 21 96 17 142 -5 71 -15 86 -68 114
-45 22 -56 41 -64 100 -3 24 -13 51 -22 59 -15 14 -16 13 -4 -3 12 -15 12 -17
-3 -11 -9 3 -16 15 -16 25 0 10 -4 19 -9 19 -5 0 -7 -10 -4 -22 4 -20 2 -18
-16 7 -16 23 -21 26 -21 12 0 -10 -5 -15 -10 -12 -6 4 -7 12 -3 18 4 7 0 6
-10 -2 -14 -11 -18 -11 -23 3 -3 9 -13 16 -21 16 -9 0 -11 5 -7 13 5 8 2 7 -9
-2 -15 -12 -20 -12 -35 2 -9 9 -21 17 -27 19 -5 2 -9 6 -8 10 2 4 -25 8 -60 8
-78 1 -104 4 -114 15 -5 4 -3 5 3 2 10 -6 22 9 29 33 5 22 38 71 53 79 23 12
84 17 100 7 6 -4 33 4 61 17 26 14 72 28 102 31 65 9 159 36 159 46 0 9 23 19
66 30 41 10 221 -23 266 -48 19 -11 62 -28 94 -37 68 -20 69 -21 187 -70 77
-31 191 -95 207 -114 3 -4 17 -16 32 -28 36 -27 103 -112 158 -198 24 -38 51
-79 61 -90 20 -24 37 -99 33 -146 -3 -25 0 -21 10 16 8 28 15 41 16 30 4 -41
8 -61 16 -80 6 -17 5 -18 -7 -8 -12 10 -15 5 -15 -29 -1 -22 2 -35 6 -28 6 9
9 9 13 -1 4 -11 6 -10 6 2 1 26 33 47 81 54 37 5 49 3 67 -14 30 -28 36 -54
28 -116 -7 -56 -33 -115 -70 -155 -43 -47 -94 -175 -136 -344 -15 -59 -25 -73
-79 -103 -36 -20 -50 -35 -51 -50 -1 -13 -2 -26 -3 -30 -1 -5 -5 -35 -10 -68
-20 -158 -121 -418 -193 -494 -13 -14 -27 -37 -30 -51 -8 -30 12 -192 29 -246
l13 -38 65 -4 c86 -4 123 -17 195 -67 66 -47 140 -86 197 -104 21 -7 56 -28
78 -46 22 -19 50 -37 63 -41 12 -3 54 -21 92 -39 83 -38 195 -76 510 -172 28
-9 100 -38 160 -65 61 -28 137 -62 169 -77 33 -14 86 -43 118 -63 l58 -38 0
1774 0 1774 -34 26 c-19 14 -37 38 -40 54 -10 41 -32 50 -106 41 -57 -6 -68
-12 -93 -41 -26 -31 -27 -37 -21 -94 6 -58 5 -62 -21 -82 -15 -12 -35 -22 -45
-22 -9 0 -20 -3 -24 -7 -10 -10 -137 -42 -168 -43 -21 0 -34 9 -50 35 -13 19
-28 35 -33 35 -14 0 -31 29 -40 68 -5 27 -3 36 16 51 26 21 31 77 8 92 -8 5
-30 9 -49 8 -56 -2 -59 0 -74 29 -8 15 -31 45 -51 67 -20 22 -49 65 -64 95
-23 46 -26 61 -19 95 5 22 9 48 9 59 0 15 5 17 27 11 67 -16 78 -16 91 -1 11
13 9 23 -13 61 -15 25 -31 45 -35 45 -5 0 -6 12 -3 26 4 24 3 25 -17 15 -31
-17 -75 13 -66 46 l5 23 -135 0 c-74 0 -135 -2 -135 -4 0 -2 21 -17 48 -32 95
-55 106 -85 66 -186 -17 -43 -17 -48 -2 -65 24 -26 12 -69 -23 -87 -27 -13
-29 -13 -53 19 -14 18 -22 35 -19 39 4 3 1 6 -5 6 -6 0 -14 9 -17 20 -3 11
-15 20 -26 20 -10 0 -19 6 -19 13 0 9 -9 12 -28 9 -50 -7 -75 58 -44 114 8 16
8 27 -3 48 -8 16 -12 39 -8 56 l6 30 -168 0 -167 0 6 -77 c11 -127 16 -143 43
-154 35 -13 51 -32 56 -66 6 -36 -19 -63 -58 -63 -26 0 -34 -16 -35 -77 0 -18
-1 -47 -1 -64 -2 -31 6 -43 81 -112 69 -64 87 -87 93 -115 9 -44 33 -64 70
-57 26 5 37 1 58 -22 15 -15 32 -46 39 -68 7 -22 16 -45 21 -51 13 -16 2 -55
-21 -76 -26 -25 -34 -60 -22 -100 22 -68 34 -499 15 -505 -5 -2 -7 -22 -6 -46
3 -36 0 -30 -21 38 -14 44 -25 89 -26 100 0 17 -2 17 -10 5 -9 -13 -10 -13
-10 1 0 8 5 20 10 25 7 7 4 10 -12 10 -19 -1 -23 4 -25 34 -1 19 1 27 3 18 8
-26 24 -22 24 5 0 13 -9 33 -20 45 -21 22 -27 37 -10 27 6 -4 10 6 10 22 0 19
-3 24 -9 15 -5 -9 -10 7 -14 42 -3 31 -13 63 -21 72 -9 8 -16 20 -16 25 0 6
-4 7 -10 4 -6 -3 -10 4 -11 17 0 13 -3 18 -6 11 -5 -13 -28 -4 -63 24 -9 7
-20 9 -26 5 -16 -10 -29 -72 -15 -72 5 0 12 10 14 23 2 12 3 7 1 -10 -2 -28 1
-33 19 -33 29 0 57 -19 40 -27 -7 -2 -13 -16 -13 -29 0 -13 -4 -24 -9 -24 -5
0 -8 -7 -7 -16 1 -22 -20 -29 -28 -9 -3 9 -2 14 2 11 5 -3 9 1 9 9 0 8 -3 14
-6 13 -27 -3 -48 5 -48 17 0 16 27 16 39 0 4 -5 6 0 5 13 -1 14 -8 22 -19 22
-18 0 -23 18 -19 72 2 22 -1 26 -13 22 -12 -5 -16 0 -15 17 0 17 2 20 7 9 9
-19 32 -24 32 -8 0 7 11 14 25 14 14 1 25 -3 25 -8 0 -6 7 -8 15 -4 8 3 15 2
15 -3 0 -4 7 -8 15 -8 13 0 13 3 -1 18 -14 15 -14 21 -4 34 19 22 7 28 -25 11
-16 -8 -42 -12 -64 -9 -79 10 -294 53 -391 78 -30 8 -79 17 -107 21 -29 4 -53
10 -53 15 0 5 21 6 47 2 42 -6 45 -5 32 9 -9 10 -18 13 -25 7 -6 -5 -14 -6
-17 -3 -3 4 -21 8 -38 10 -42 5 -44 8 -25 36 10 14 16 17 16 8 0 -9 6 -6 16 8
9 13 13 26 10 29 -3 4 -6 0 -6 -8 -1 -8 -8 -3 -16 11 -8 14 -13 17 -10 8 6
-20 -20 -14 -27 7 -6 15 74 12 181 -7 35 -6 65 -8 68 -6 4 5 -102 26 -161 32
-16 2 -30 7 -32 13 -2 5 12 7 30 5 32 -4 34 -2 34 27 0 19 -4 28 -11 24 -6 -4
-5 0 1 9 13 15 8 28 -9 28 -5 0 -6 -5 -2 -12 4 -7 3 -8 -4 -4 -6 4 -11 21 -10
39 0 18 -2 51 -6 75 -7 36 -6 41 8 36 11 -4 15 -13 10 -26 -4 -14 -2 -18 5
-14 6 4 11 0 11 -8 0 -9 -4 -16 -10 -16 -14 0 -8 -49 8 -63 8 -6 27 -10 43 -9
16 1 29 -3 29 -9 0 -6 -8 -8 -20 -4 -18 6 -25 -3 -21 -27 0 -5 -3 -8 -9 -8 -5
0 -7 -7 -4 -15 4 -8 10 -12 15 -9 5 3 9 -1 10 -8 0 -7 4 -4 9 7 7 17 9 17 9 3
1 -10 6 -19 11 -19 13 -2 21 -4 40 -11 8 -4 30 -9 49 -12 27 -5 32 -3 27 9 -3
8 -1 15 4 15 6 0 10 -7 10 -15 0 -8 3 -15 8 -16 4 0 17 -2 28 -3 12 -1 20 2
19 8 -13 48 -18 56 -30 46 -9 -8 -15 -8 -20 0 -4 6 -1 9 7 8 7 -2 12 4 10 12
-1 8 9 3 22 -12 31 -35 39 -36 24 -3 -6 13 -14 23 -17 22 -9 -2 -81 35 -80 42
0 3 4 15 9 26 8 19 9 19 9 -2 1 -13 6 -23 11 -23 6 0 11 10 11 23 1 16 2 18 6
5 5 -22 23 -24 23 -4 0 8 4 17 9 21 6 3 6 -7 0 -27 -11 -41 -11 -41 1 -33 6 3
10 15 10 26 0 10 5 19 10 19 6 0 10 -5 10 -11 0 -15 26 -39 34 -32 10 11 7 23
-6 21 -6 -2 -14 5 -16 16 -2 10 0 16 6 12 6 -4 8 3 4 16 -5 19 -7 20 -10 6 -2
-10 -7 -18 -12 -18 -5 0 -4 13 1 30 6 16 9 35 6 42 -3 7 -6 3 -6 -9 -1 -12 -6
-25 -12 -29 -9 -5 -10 1 -5 20 4 18 3 25 -4 21 -5 -3 -10 0 -10 8 0 8 -6 17
-14 20 -10 4 -12 0 -8 -15 4 -17 2 -20 -12 -15 -15 6 -16 2 -10 -28 4 -22 2
-35 -4 -35 -14 0 -24 33 -16 54 4 12 2 15 -9 10 -8 -3 -18 -1 -22 5 -3 6 1 11
9 11 11 0 16 9 15 28 l-1 27 -8 -25 c-7 -21 -8 -19 -9 18 -1 23 3 42 8 42 5 0
12 6 14 13 2 6 3 0 1 -15 -2 -16 1 -28 6 -28 6 0 10 7 10 15 0 8 6 15 14 15 8
0 20 2 28 3 7 2 10 2 6 0 -5 -3 -8 -12 -8 -20 0 -13 -2 -13 -16 -2 -14 12 -16
11 -13 -5 2 -11 13 -20 26 -21 12 -1 20 2 17 7 -3 4 -2 13 2 19 4 8 9 7 15 -2
7 -11 9 -10 9 3 0 10 -10 26 -22 38 -19 17 -19 20 -4 20 10 0 14 5 11 11 -4 6
-13 8 -20 5 -8 -3 -19 2 -25 10 -17 19 -34 18 -26 -2 6 -15 4 -15 -11 -3 -14
12 -16 12 -11 -1 3 -8 2 -24 -3 -35 -7 -18 -8 -17 -8 6 -1 28 -40 76 -50 62
-9 -14 -41 -24 -41 -13 0 6 7 10 15 10 9 0 18 7 22 15 5 14 8 14 27 2 11 -8
40 -16 63 -19 l42 -6 -27 22 c-59 47 -109 76 -133 76 -13 0 -35 7 -47 16 -12
8 -22 12 -22 8 0 -3 -7 -1 -15 6 -19 16 -19 0 0 -26 8 -10 14 -37 13 -59 -1
-32 -2 -34 -5 -10 -7 60 -34 104 -74 122 -41 19 -52 34 -19 28 23 -4 26 7 7
27 -7 7 -20 29 -30 48 -9 19 -17 28 -17 20 0 -10 -3 -11 -8 -4 -9 14 -52 25
-52 13 0 -4 -7 -6 -15 -3 -8 4 -22 0 -31 -7 -8 -7 -27 -14 -41 -15 -15 -2 -30
-10 -35 -18 -5 -8 -17 -12 -30 -9 -19 4 -20 3 -8 -7 12 -10 10 -10 -10 -5 -28
8 -58 13 -80 14 -13 1 -13 3 0 12 12 9 12 10 -3 5 -10 -3 -21 -6 -23 -6 -3 0
-2 -5 2 -12 5 -8 0 -9 -14 -6 -14 4 -22 2 -22 -7 0 -7 -4 -15 -8 -17 -5 -1
-15 -16 -23 -32 -11 -23 -25 -33 -59 -41 -43 -11 -170 -63 -180 -75 -3 -3 -21
-13 -40 -24 -152 -80 -252 -138 -296 -172 -31 -23 -32 -23 -49 -4 -9 10 -14
24 -10 29 3 6 3 11 -2 11 -4 0 -7 55 -5 123 3 162 3 187 -4 290 l-5 87 -675 0
-674 0 0 -1931z m2360 1791 c0 -5 -5 -10 -11 -10 -5 0 -7 5 -4 10 3 6 8 10 11
10 2 0 4 -4 4 -10z m-90 -37 c0 -9 6 -13 15 -9 11 4 15 -1 15 -17 0 -18 -2
-19 -10 -7 -5 8 -10 10 -10 4 0 -6 -6 -11 -12 -11 -7 0 -17 -2 -23 -3 -29 -7
-54 1 -49 15 8 21 34 19 35 -2 1 -17 2 -17 6 0 2 9 9 17 15 17 6 0 8 9 5 20
-3 11 -1 18 4 14 5 -3 9 -12 9 -21z m151 -5 c11 -21 11 -22 -4 -9 -10 7 -17
17 -17 22 0 15 9 10 21 -13z m-346 -27 c-6 -5 -25 10 -25 20 0 5 6 4 14 -3 8
-7 12 -15 11 -17z m335 -5 c0 -10 -50 8 -54 20 -5 12 0 12 24 -1 17 -9 30 -17
30 -19z m-300 -41 c0 -2 -10 -9 -22 -15 -22 -11 -22 -10 -4 4 21 17 26 19 26
11z m-55 -25 c-3 -5 -11 -10 -16 -10 -6 0 -7 5 -4 10 3 6 11 10 16 10 6 0 7
-4 4 -10z m513 -56 c-3 -14 -5 -12 -10 9 -3 19 -2 25 4 19 6 -6 8 -18 6 -28z
m837 26 c3 -5 1 -10 -4 -10 -6 0 -11 5 -11 10 0 6 2 10 4 10 3 0 8 -4 11 -10z
m-774 -27 c-4 -15 -14 -29 -22 -31 -12 -5 -12 -3 0 11 7 9 11 24 7 32 -3 9 0
15 8 15 11 0 12 -7 7 -27z m-41 -63 c0 -5 -2 -10 -4 -10 -3 0 -8 5 -11 10 -3
6 -1 10 4 10 6 0 11 -4 11 -10z m-446 -8 c3 -5 -1 -9 -9 -9 -8 0 -12 4 -9 9 3
4 7 8 9 8 2 0 6 -4 9 -8z m502 -46 c-17 -35 -14 -61 8 -69 15 -6 20 -77 6 -77
-6 0 -10 13 -10 30 0 16 -7 33 -16 38 -12 7 -15 18 -12 36 4 20 0 31 -13 39
-25 16 -24 31 1 24 11 -3 20 -1 20 5 0 5 5 6 10 3 6 -3 10 2 11 12 0 11 3 13
6 5 3 -7 -2 -28 -11 -46z m519 34 c4 -11 17 -32 31 -45 13 -13 24 -31 24 -39
0 -21 -19 -30 -26 -12 -3 9 -13 16 -22 16 -16 0 -62 45 -62 61 0 39 44 54 55
19z m-488 -37 c-3 -10 -5 -4 -5 12 0 17 2 24 5 18 2 -7 2 -21 0 -30z m-393 -5
c-5 -8 -2 -9 10 -5 9 4 15 3 12 -2 -5 -8 -86 -21 -86 -14 0 4 54 32 63 33 5 0
5 -5 1 -12z m372 -35 c-11 -11 -17 4 -9 23 7 18 8 18 11 1 2 -10 1 -21 -2 -24z
m-141 -3 c-2 -40 -15 -51 -15 -13 0 24 6 43 15 43 1 0 1 -14 0 -30z m162 -2
c-3 -8 -6 -5 -6 6 -1 11 2 17 5 13 3 -3 4 -12 1 -19z m-325 2 c5 0 2 -7 -6
-16 -9 -8 -20 -12 -26 -9 -6 3 -13 -1 -16 -9 -3 -9 -12 -16 -20 -16 -8 0 -14
-5 -14 -10 0 -6 6 -10 13 -9 6 1 23 1 37 0 20 -1 22 -3 10 -12 -12 -8 -10 -10
10 -8 38 2 47 -2 25 -11 l-20 -9 20 0 c24 -1 59 -55 61 -91 1 -14 6 -36 13
-48 13 -25 13 -25 -56 -22 -26 1 -43 -3 -43 -10 0 -7 -12 -9 -35 -4 -21 4 -35
2 -35 -4 0 -5 12 -9 27 -9 14 0 31 -7 37 -14 15 -19 40 -23 33 -6 -4 10 0 13
12 10 21 -5 24 -33 4 -33 -7 0 -13 -8 -13 -17 1 -22 30 -64 30 -43 0 7 3 11 6
7 4 -3 4 -13 1 -21 -8 -20 -37 -10 -37 12 0 14 -1 14 -12 0 -7 -9 -20 -18 -28
-21 -8 -3 2 -6 23 -6 20 -1 37 -5 37 -11 0 -13 -64 -12 -115 1 -52 14 -76 13
-86 -3 -17 -27 -8 4 13 45 17 33 22 60 22 129 1 99 -3 103 -69 81 -42 -15 -82
-20 -207 -27 l-78 -5 0 28 c0 15 4 31 9 36 5 6 14 28 21 50 7 22 15 34 18 26
4 -11 6 -11 12 0 7 10 11 10 24 0 15 -13 18 -9 15 15 -2 13 26 23 37 13 12
-10 41 -8 62 4 8 5 12 2 12 -8 0 -13 4 -14 21 -5 15 9 28 9 48 0 23 -9 38 -7
84 10 31 12 57 24 57 26 0 3 -9 3 -19 -1 -11 -3 -22 -1 -26 4 -3 6 0 8 8 5 8
-3 18 0 22 5 3 6 10 9 15 6 5 -3 12 0 15 6 4 5 14 8 22 5 8 -3 19 -6 25 -6z
m5 -56 c-3 -3 -12 -4 -19 -1 -8 3 -5 6 6 6 11 1 17 -2 13 -5z m283 -19 c0 -14
-2 -25 -4 -25 -2 0 -6 11 -8 25 -3 14 -1 25 3 25 5 0 9 -11 9 -25z m-40 -59
c0 -8 -4 -18 -10 -21 -5 -3 -10 3 -10 14 0 12 5 21 10 21 6 0 10 -6 10 -14z
m30 0 c0 -8 3 -23 6 -33 5 -16 4 -16 -10 1 -11 13 -16 15 -16 6 0 -7 -2 -11
-5 -9 -7 8 6 49 16 49 5 0 9 -6 9 -14z m33 -17 c-3 -22 -2 -22 11 -7 12 17 26
15 26 -4 0 -5 -5 -6 -11 -2 -7 4 -9 0 -5 -14 6 -17 3 -19 -13 -15 -13 3 -20
16 -23 39 -2 21 0 33 6 31 6 -3 10 -15 9 -28z m-496 -79 c2 0 3 -4 3 -10 0 -5
-8 -10 -17 -11 -11 0 -13 -3 -5 -6 17 -7 15 -43 -3 -43 -8 0 -15 -7 -15 -15 0
-9 7 -18 15 -21 21 -8 19 -34 -2 -35 -11 0 -13 -3 -5 -6 6 -2 12 -11 12 -18 0
-10 -7 -11 -35 -2 -36 11 -47 27 -19 27 8 0 12 5 9 10 -4 6 -10 8 -15 5 -13
-8 -8 87 5 101 5 6 17 9 25 7 8 -2 5 2 -8 9 -30 19 -18 28 21 17 18 -5 33 -9
34 -9z m528 -10 c3 -5 -1 -10 -9 -10 -8 0 -18 5 -21 10 -3 6 1 10 9 10 8 0 18
-4 21 -10z m-785 -8 c0 -4 -4 -22 -9 -39 -8 -28 -7 -33 10 -38 27 -9 18 -31
-12 -27 -31 3 -35 12 -31 66 3 37 8 46 23 46 10 0 19 -3 19 -8z m769 -48 c14
-12 -19 -1 -35 12 -18 14 -18 14 6 3 14 -6 27 -13 29 -15z m-279 6 c0 -5 -2
-10 -4 -10 -3 0 -8 5 -11 10 -3 6 -1 10 4 10 6 0 11 -4 11 -10z m60 0 c0 -5
-5 -10 -11 -10 -5 0 -7 5 -4 10 3 6 8 10 11 10 2 0 4 -4 4 -10z m314 -8 c2 -4
-4 -9 -15 -9 -10 -1 -19 2 -19 8 0 11 27 12 34 1z m-884 -81 c0 -26 -10 -51
-21 -51 -5 0 -9 16 -9 35 0 24 5 35 15 35 8 0 15 -9 15 -19z m1090 -271 c0 -5
-4 -10 -10 -10 -5 0 -10 5 -10 10 0 6 5 10 10 10 6 0 10 -4 10 -10z m-3 -62
c-3 -8 -6 -5 -6 6 -1 11 2 17 5 13 3 -3 4 -12 1 -19z m133 -63 c0 -14 5 -25
10 -25 6 0 10 -4 10 -10 0 -15 -26 -12 -39 4 -8 9 -8 16 -2 20 6 4 8 13 4 21
-3 8 0 15 6 15 6 0 11 -11 11 -25z m-1365 -53 c-3 -3 -11 0 -18 7 -9 10 -8 11
6 5 10 -3 15 -9 12 -12z m1388 -16 c16 -12 16 -14 2 -20 -9 -3 -13 -2 -10 4 3
6 1 10 -4 10 -6 0 -11 -5 -11 -11 0 -5 -4 -8 -10 -4 -10 6 -3 35 9 35 3 0 14
-7 24 -14z m31 -52 c5 -14 4 -15 -9 -4 -17 14 -19 20 -6 20 5 0 12 -7 15 -16z
m-1309 -32 c-3 -3 -11 0 -18 7 -9 10 -8 11 6 5 10 -3 15 -9 12 -12z m-112
-209 c-7 -2 -19 -2 -25 0 -7 3 -2 5 12 5 14 0 19 -2 13 -5z m67 -3 c12 -8 12
-10 -5 -10 -11 0 -27 5 -35 10 -12 8 -12 10 5 10 11 0 27 -5 35 -10z m-14 -77
c-8 -8 -36 10 -36 25 0 13 3 12 20 -3 11 -10 18 -20 16 -22z m82 -29 c15 -32
15 -35 -3 -28 -11 5 -13 2 -9 -10 6 -15 25 -20 71 -17 11 1 24 -3 28 -8 3 -6
-1 -11 -9 -11 -9 0 -16 -6 -16 -12 0 -9 -4 -8 -10 2 -5 8 -10 11 -10 6 0 -6
-5 -5 -11 1 -8 8 -21 6 -47 -9 -20 -11 -50 -20 -67 -21 -37 -1 -116 33 -108
46 4 7 -1 8 -12 3 -11 -4 -22 -2 -27 6 -6 10 -8 10 -8 1 0 -7 -5 -13 -11 -13
-5 0 -7 5 -4 10 3 6 -1 10 -10 10 -9 0 -13 5 -10 10 3 6 1 10 -6 10 -7 0 -10
2 -7 5 3 3 33 -2 66 -11 35 -10 73 -14 93 -10 19 3 38 5 42 3 13 -3 34 43 31
69 -2 22 -1 22 20 8 13 -8 28 -26 34 -40z m1419 14 c-3 -7 -5 -2 -5 12 0 14 2
19 5 13 2 -7 2 -19 0 -25z m3 -33 c0 -8 -4 -15 -10 -15 -5 0 -7 7 -4 15 4 8 8
15 10 15 2 0 4 -7 4 -15z m-1380 -109 c18 -7 28 -15 22 -17 -5 -2 -12 -13 -14
-24 -2 -14 2 -20 14 -19 21 2 17 -25 -13 -83 -24 -46 -24 -59 -1 -72 15 -9 15
-10 -6 -11 -15 0 -26 -9 -32 -25 -5 -14 -13 -25 -18 -25 -4 0 -8 -9 -9 -20 -2
-23 -70 -100 -90 -100 -7 0 -13 -4 -13 -8 0 -4 -18 -19 -40 -32 -22 -14 -40
-33 -40 -42 0 -10 -11 -20 -25 -24 -25 -6 -34 -29 -14 -36 15 -5 -38 -111 -63
-127 -11 -7 -23 -10 -26 -7 -8 9 17 106 34 134 13 19 13 22 0 22 -17 0 -28 27
-21 51 4 11 2 19 -5 19 -17 0 -38 25 -46 54 -3 14 -10 26 -16 26 -5 0 -7 -4
-3 -9 3 -5 1 -12 -4 -16 -12 -7 -31 26 -31 53 0 11 -7 23 -16 26 -12 4 -14 1
-10 -14 3 -11 9 -30 12 -42 6 -20 5 -21 -10 -6 -9 9 -16 22 -16 28 0 6 -9 24
-21 39 -18 25 -19 32 -8 52 7 13 12 32 10 41 -1 10 2 25 8 35 6 11 6 24 0 35
-7 13 -6 18 3 18 10 0 10 2 0 9 -10 6 -8 10 10 15 13 4 18 9 11 12 -20 8 6 29
45 37 22 4 32 3 33 -6 0 -9 2 -9 6 1 6 14 42 16 63 2 8 -5 19 -5 25 -1 5 5 30
11 55 15 32 4 38 3 20 -3 -16 -6 -19 -9 -8 -10 9 -1 27 3 40 8 13 5 27 9 32 9
5 0 12 4 15 9 8 12 83 34 75 22 -3 -5 4 -9 15 -9 12 0 21 7 21 15 0 19 9 19
50 1z m75 -322 c16 -39 13 -54 -12 -54 -9 0 -24 -7 -33 -15 -18 -17 -61 -8
-75 15 -12 20 45 70 102 89 2 1 10 -15 18 -35z m-145 -479 c0 -8 -4 -15 -10
-15 -5 0 -10 7 -10 15 0 8 5 15 10 15 6 0 10 -7 10 -15z m37 -7 c-3 -8 -6 -5
-6 6 -1 11 2 17 5 13 3 -3 4 -12 1 -19z m33 -8 c0 -5 -4 -10 -10 -10 -5 0 -10
5 -10 10 0 6 5 10 10 10 6 0 10 -4 10 -10z m220 -120 c0 -14 28 -12 33 3 2 6
7 9 11 6 4 -4 0 -14 -8 -22 -12 -12 -13 -17 -3 -21 6 -3 -1 -3 -18 1 -16 3
-38 14 -48 24 -17 18 -17 19 8 19 14 0 25 -4 25 -10z m130 -10 c9 -12 89 -28
110 -23 15 4 19 1 15 -10 -5 -11 -14 -13 -42 -7 -19 5 -42 6 -51 3 -11 -5 -13
-3 -7 6 6 10 0 12 -26 7 -24 -4 -28 -3 -14 3 18 8 19 9 2 16 -9 4 -29 4 -44 0
-23 -5 -25 -4 -14 9 13 15 59 13 71 -4z m-40 -20 c0 -5 -5 -10 -11 -10 -5 0
-7 5 -4 10 3 6 8 10 11 10 2 0 4 -4 4 -10z m-951 -60 c0 -10 -3 -8 -9 5 -12
27 -12 43 0 25 5 -8 9 -22 9 -30z m8 -42 c-3 -8 -6 -5 -6 6 -1 11 2 17 5 13 3
-3 4 -12 1 -19z m-702 -130 c26 5 143 -66 201 -123 33 -31 48 -77 34 -104 -4
-9 -13 -27 -19 -41 -31 -66 -226 -104 -301 -59 -43 26 -50 36 -50 72 0 15 -9
35 -20 44 -11 10 -20 24 -20 32 0 8 -3 11 -6 8 -4 -3 -15 5 -26 18 -14 18 -18
37 -16 67 3 38 6 43 26 41 13 -2 35 3 50 11 15 7 41 11 59 9 24 -4 34 0 45 16
7 12 14 17 16 13 1 -5 14 -7 27 -4z m1310 -318 c3 -5 1 -10 -4 -10 -6 0 -11 5
-11 10 0 6 2 10 4 10 3 0 8 -4 11 -10z m45 -12 c0 -9 4 -8 10 2 5 8 10 11 10
5 0 -5 -5 -17 -10 -25 -7 -12 -10 -12 -10 -1 0 7 -6 11 -13 8 -8 -3 -14 1 -14
9 0 8 6 14 14 14 7 0 13 -6 13 -12z m45 -90 l15 -32 -23 22 c-13 12 -24 29
-24 37 0 21 13 9 32 -27z m148 2 c3 -11 1 -18 -4 -14 -5 3 -9 12 -9 20 0 20 7
17 13 -6z m-423 -10 c0 -5 -5 -10 -11 -10 -5 0 -7 5 -4 10 3 6 8 10 11 10 2 0
4 -4 4 -10z m23 -15 c-3 -9 -8 -14 -10 -11 -3 3 -2 9 2 15 9 16 15 13 8 -4z
m315 -16 c-3 -8 -7 -3 -11 10 -4 17 -3 21 5 13 5 -5 8 -16 6 -23z m-268 -21
c0 -6 -6 -5 -15 2 -8 7 -15 14 -15 16 0 2 7 1 15 -2 8 -4 15 -11 15 -16z m207
-10 c-3 -8 -6 -5 -6 6 -1 11 2 17 5 13 3 -3 4 -12 1 -19z m-121 -10 c4 -6 -7
-8 -26 -4 -45 7 -58 23 -15 18 19 -2 38 -9 41 -14z m104 1 c0 -6 -5 -7 -12 -3
-7 5 -9 2 -6 -8 4 -9 0 -15 -10 -16 -29 -1 -62 8 -62 18 0 5 7 7 15 4 9 -4 15
0 16 7 0 8 4 5 8 -6 8 -19 8 -19 21 2 14 21 30 22 30 2z m40 -19 c0 -5 -5 -10
-11 -10 -5 0 -7 5 -4 10 3 6 8 10 11 10 2 0 4 -4 4 -10z m55 -2 c4 -3 2 -9 -3
-12 -5 -3 -15 1 -21 8 -10 11 -9 14 3 12 9 -1 18 -5 21 -8z m-989 -53 c-11 -8
-35 -15 -54 -15 -18 0 -43 -5 -55 -11 -19 -9 -18 -7 3 10 14 11 43 22 65 24
22 2 45 4 50 5 6 1 1 -5 -9 -13z m1218 -74 c3 -5 -2 -12 -12 -16 -16 -7 -15
-8 3 -15 19 -8 19 -9 -2 -9 -28 -1 -38 15 -23 34 14 17 26 19 34 6z m-81 -32
c3 -13 1 -19 -6 -16 -15 5 -22 37 -9 37 5 0 12 -9 15 -21z m-1426 -5 c-3 -3
-12 -4 -19 -1 -8 3 -5 6 6 6 11 1 17 -2 13 -5z m43 2 c0 -2 -7 -7 -16 -10 -8
-3 -12 -2 -9 4 6 10 25 14 25 6z m30 -26 c0 -5 -7 -7 -15 -4 -8 4 -15 8 -15
10 0 2 7 4 15 4 8 0 15 -4 15 -10z m-50 -10 c0 -5 -8 -10 -17 -10 -15 0 -16 2
-3 10 19 12 20 12 20 0z m130 6 c0 -2 -8 -10 -17 -17 -16 -13 -17 -12 -4 4 13
16 21 21 21 13z m1315 -16 c3 -5 1 -10 -4 -10 -6 0 -11 5 -11 10 0 6 2 10 4
10 3 0 8 -4 11 -10z m-1345 -100 c0 -5 -5 -10 -11 -10 -5 0 -7 5 -4 10 3 6 8
10 11 10 2 0 4 -4 4 -10z m37 -16 c-3 -3 -12 -4 -19 -1 -8 3 -5 6 6 6 11 1 17
-2 13 -5z m1138 -234 c4 -6 -5 -10 -19 -10 -14 0 -26 5 -26 10 0 6 9 10 19 10
11 0 23 -4 26 -10z"/>
<path d="M2125 4030 c3 -5 8 -10 11 -10 2 0 4 5 4 10 0 6 -5 10 -11 10 -5 0
-7 -4 -4 -10z"/>
<path d="M2245 3690 c27 -12 43 -12 25 0 -8 5 -22 9 -30 9 -10 0 -8 -3 5 -9z"/>
<path d="M1620 2590 c0 -5 5 -10 11 -10 5 0 7 5 4 10 -3 6 -8 10 -11 10 -2 0
-4 -4 -4 -10z"/>
<path d="M4240 4574 c-11 -20 -12 -27 -1 -33 7 -5 12 -11 12 -15 -1 -3 2 -15
5 -27 5 -16 9 -18 20 -8 8 6 14 22 14 35 0 12 4 34 10 48 9 24 7 26 -19 26
-19 0 -32 -7 -41 -26z"/>
<path d="M2830 4150 c0 -12 28 -25 36 -17 3 3 -4 10 -15 17 -15 7 -21 7 -21 0z"/>
<path d="M2825 4120 c-3 -5 1 -10 10 -10 9 0 13 5 10 10 -3 6 -8 10 -10 10 -2
0 -7 -4 -10 -10z"/>
<path d="M2886 4115 c4 -8 11 -15 16 -15 6 0 5 6 -2 15 -7 8 -14 15 -16 15 -2
0 -1 -7 2 -15z"/>
<path d="M2812 4045 c-11 -12 -10 -15 3 -15 8 0 15 7 15 15 0 18 -2 18 -18 0z"/>
<path d="M2797 3884 c-4 -4 2 -15 14 -25 14 -12 16 -18 7 -22 -10 -3 -10 -7
-1 -17 6 -7 9 -19 6 -26 -3 -8 1 -14 8 -15 8 0 5 -4 -6 -9 l-20 -9 20 -1 c11
-1 29 -3 40 -6 11 -2 36 -6 55 -9 l35 -5 -35 11 c-31 10 -33 12 -15 20 15 7
11 8 -15 4 -33 -5 -33 -5 -15 11 11 8 15 13 8 10 -6 -4 -14 0 -17 6 -5 10 -7
10 -12 1 -3 -7 -9 -13 -13 -13 -14 0 1 54 18 68 14 12 14 13 -1 8 -22 -7 -50
3 -42 15 6 10 -9 12 -19 3z"/>
<path d="M2895 3880 c-3 -5 -1 -10 4 -10 6 0 11 5 11 10 0 6 -2 10 -4 10 -3 0
-8 -4 -11 -10z"/>
<path d="M3021 3824 c0 -11 3 -14 6 -6 3 7 2 16 -1 19 -3 4 -6 -2 -5 -13z"/>
<path d="M2690 3750 c8 -5 24 -10 35 -10 17 0 17 2 5 10 -8 5 -24 10 -35 10
-17 0 -17 -2 -5 -10z"/>
<path d="M2755 3740 c-5 -9 73 -25 81 -17 3 2 -13 9 -36 15 -22 5 -42 6 -45 2z"/>
<path d="M3060 3736 c0 -2 7 -7 16 -10 8 -3 12 -2 9 4 -6 10 -25 14 -25 6z"/>
<path d="M2617 3714 c-10 -11 5 -34 22 -34 25 0 33 11 20 27 -12 14 -31 17
-42 7z"/>
<path d="M3088 3708 c-9 -5 -6 -7 9 -5 12 2 25 6 28 8 8 9 -23 6 -37 -3z"/>
<path d="M2945 3699 c22 -5 55 -14 73 -18 17 -5 32 -7 32 -5 0 10 -41 22 -90
27 -51 6 -52 6 -15 -4z"/>
<path d="M2580 3650 c8 -5 26 -10 39 -10 32 0 24 6 -19 14 -25 4 -31 3 -20 -4z"/>
<path d="M3080 3628 c-1 -36 -23 -56 -66 -61 l-39 -4 41 -1 c28 -1 46 3 56 16
19 22 29 60 17 68 -5 3 -9 -5 -9 -18z"/>
<path d="M2660 3630 c8 -5 24 -9 35 -9 l20 0 -20 9 c-11 5 -27 9 -35 9 -13 1
-13 0 0 -9z"/>
<path d="M2720 3620 c0 -8 69 -24 76 -18 2 2 -14 9 -36 15 -22 5 -40 7 -40 3z"/>
<path d="M3151 3616 c-1 -12 -6 -16 -16 -12 -16 6 -20 -8 -16 -52 3 -30 36
-84 46 -74 4 4 5 -6 1 -23 -4 -16 -4 -27 0 -23 4 4 13 0 20 -9 11 -15 11 -14
7 10 -3 16 -1 27 6 27 6 0 11 -15 12 -32 1 -31 1 -31 9 -8 l7 25 5 -30 c5 -29
5 -30 7 -3 0 17 -8 36 -23 51 -17 17 -21 28 -15 40 10 16 2 47 -11 47 -5 0
-11 -6 -14 -12 -3 -7 -3 5 1 26 4 26 2 37 -5 32 -6 -3 -12 4 -15 16 -3 17 -5
18 -6 4z"/>
<path d="M2828 3593 c7 -3 16 -2 19 1 4 3 -2 6 -13 5 -11 0 -14 -3 -6 -6z"/>
<path d="M2885 3580 c17 -4 41 -8 55 -8 l25 0 -25 8 c-14 4 -38 8 -55 8 l-30
0 30 -8z"/>
<path d="M3230 3490 c0 -5 5 -10 11 -10 5 0 7 5 4 10 -3 6 -8 10 -11 10 -2 0
-4 -4 -4 -10z"/>
<path d="M3250 3401 c0 -25 6 -27 13 -6 4 8 2 17 -3 20 -6 4 -10 -3 -10 -14z"/>
<path d="M3229 3349 c0 -21 -1 -22 -8 -5 -4 11 -10 15 -13 10 -2 -5 1 -20 8
-33 l12 -23 7 32 c4 17 4 34 1 37 -3 4 -6 -5 -7 -18z"/>
<path d="M3243 3315 c-3 -9 -3 -18 -1 -21 3 -3 8 4 11 16 6 23 -1 27 -10 5z"/>
<path d="M1815 3270 c-3 -5 -1 -10 4 -10 6 0 11 5 11 10 0 6 -2 10 -4 10 -3 0
-8 -4 -11 -10z"/>
<path d="M2522 3176 c-12 -7 -20 -15 -17 -18 3 -3 -6 -5 -19 -5 -14 0 -23 3
-21 8 8 13 -35 22 -49 10 -7 -6 -17 -7 -21 -3 -5 4 -5 2 -2 -5 4 -6 2 -13 -5
-15 -6 -2 -12 -14 -13 -27 -1 -14 3 -20 11 -17 20 8 26 -10 10 -27 -19 -18
-25 -91 -8 -93 6 -1 18 -2 25 -3 7 -1 4 -9 -9 -19 -19 -16 -31 -57 -13 -47 4
3 15 2 23 -1 15 -6 15 -9 1 -30 -13 -21 -13 -23 0 -18 8 4 15 1 15 -5 0 -6 8
-11 17 -11 13 0 14 -3 5 -12 -20 -20 -15 -48 9 -48 15 0 19 -5 15 -15 -3 -8
-1 -15 4 -15 6 0 10 5 10 11 0 5 5 7 10 4 6 -3 10 2 10 13 0 10 10 28 23 40
l24 22 -5 -30 c-2 -16 -9 -30 -16 -30 -6 0 3 -7 19 -16 18 -9 56 -16 94 -16
71 0 91 13 91 60 l0 25 23 -24 c13 -13 22 -27 20 -32 -5 -10 47 -29 63 -23 7
2 15 2 18 -2 12 -11 56 -13 56 -2 0 5 -4 11 -10 11 -5 1 -14 2 -19 3 -6 0 -16
7 -22 14 -7 6 -19 12 -26 12 -7 0 -13 4 -13 9 0 8 -38 34 -97 67 -26 15 -78
27 -118 28 -16 1 -29 6 -27 11 2 6 12 9 23 8 11 -2 18 1 14 6 -3 6 12 12 32
14 l38 4 -37 1 c-26 1 -38 7 -38 17 0 11 12 15 49 15 28 0 53 -4 56 -10 3 -5
11 -10 16 -10 6 0 7 4 4 10 -3 6 1 7 9 4 15 -6 20 5 17 34 -1 7 6 15 16 19 16
6 15 8 -7 14 -21 6 -18 7 15 8 28 1 36 4 25 10 -8 6 -18 7 -24 4 -5 -3 -6 -1
-2 6 4 6 11 9 16 6 11 -7 60 5 60 14 0 4 -25 7 -55 6 -41 -2 -55 1 -55 11 0 8
-10 14 -22 14 -22 1 -22 1 -4 15 17 13 15 14 -18 20 -20 4 -34 11 -31 15 10
16 -64 21 -92 6 -16 -8 -22 -15 -15 -16 6 0 11 -6 10 -12 -2 -8 6 -12 21 -10
13 2 21 -1 17 -6 -7 -11 -24 -11 -42 1 -6 3 -14 4 -18 0 -10 -11 -55 -12 -61
-2 -4 5 3 9 14 9 11 0 22 9 26 21 9 27 5 30 -23 15z m175 -75 c-1 -13 -6 -17
-22 -12 -17 4 -18 6 -2 9 9 2 17 8 17 13 0 5 2 9 4 9 3 0 4 -8 3 -19z m43 5
c0 -2 -7 -7 -16 -10 -8 -3 -12 -2 -9 4 6 10 25 14 25 6z m-40 -261 c11 -13 8
-15 -14 -15 -16 0 -26 5 -26 15 0 8 6 15 14 15 7 0 19 -7 26 -15z"/>
<path d="M2793 3124 c3 -3 22 -6 42 -6 20 0 39 3 42 6 4 3 -15 6 -42 6 -27 0
-46 -3 -42 -6z"/>
<path d="M2930 3100 c20 -13 33 -13 25 0 -3 6 -14 10 -23 10 -15 0 -15 -2 -2
-10z"/>
<path d="M2888 3073 c7 -3 16 -2 19 1 4 3 -2 6 -13 5 -11 0 -14 -3 -6 -6z"/>
<path d="M2950 3070 c0 -5 5 -10 11 -10 5 0 7 5 4 10 -3 6 -8 10 -11 10 -2 0
-4 -4 -4 -10z"/>
<path d="M2855 2850 c7 -12 65 -53 65 -46 0 8 -54 56 -63 56 -4 0 -6 -4 -2
-10z"/>
<path d="M2494 2732 c-20 -15 -12 -33 29 -56 56 -32 123 -43 145 -23 9 8 28
17 42 20 14 2 4 5 -23 6 -26 0 -68 10 -93 21 -70 33 -90 39 -100 32z"/>
<path d="M3208 2698 c-3 -7 -1 -24 3 -38 6 -22 7 -20 8 13 1 38 -3 47 -11 25z"/>
<path d="M3232 2685 c0 -16 2 -22 5 -12 2 9 2 23 0 30 -3 6 -5 -1 -5 -18z"/>
<path d="M3319 2684 c-28 -15 -59 -46 -43 -43 30 5 34 -3 34 -73 l1 -73 33 39
c33 39 60 101 61 141 0 25 -47 30 -86 9z"/>
<path d="M3193 2521 c0 -11 5 -17 9 -15 11 7 10 34 -1 34 -6 0 -9 -9 -8 -19z"/>
<path d="M2050 1970 c0 -5 7 -7 15 -4 8 4 15 8 15 10 0 2 -7 4 -15 4 -8 0 -15
-4 -15 -10z"/>
<path d="M2156 1955 c4 -8 8 -15 10 -15 2 0 4 7 4 15 0 8 -4 15 -10 15 -5 0
-7 -7 -4 -15z"/>
<path d="M1951 1704 c0 -11 3 -14 6 -6 3 7 2 16 -1 19 -3 4 -6 -2 -5 -13z"/>
<path d="M2308 1524 c-3 -5 -2 -18 2 -28 3 -11 9 -15 12 -10 3 5 2 18 -2 28
-3 11 -9 15 -12 10z"/>
<path d="M1954 1306 c-8 -22 3 -33 18 -18 9 9 9 15 0 24 -9 9 -13 7 -18 -6z"/>
<path d="M2257 1085 c3 -8 9 -12 14 -9 5 3 13 -5 18 -18 6 -13 10 -16 10 -8 1
20 -10 35 -31 43 -12 4 -15 2 -11 -8z"/>
<path d="M2291 1012 c-1 -7 6 -15 14 -18 8 -4 15 -16 15 -28 0 -17 6 -22 28
-23 25 -2 26 -1 5 7 -25 10 -30 26 -10 33 7 3 5 6 -5 6 -10 1 -18 6 -18 12 0
5 -4 8 -9 5 -5 -4 -12 0 -14 6 -4 10 -6 10 -6 0z"/>
<path d="M2380 1010 c0 -5 5 -10 10 -10 6 0 10 5 10 10 0 6 -4 10 -10 10 -5 0
-10 -4 -10 -10z"/>
<path d="M3030 987 c0 -3 16 -15 35 -27 43 -26 52 -43 71 -123 l14 -62 -6 58
c-6 63 -25 117 -46 134 -15 13 -68 28 -68 20z"/>
<path d="M2370 970 c0 -5 7 -7 15 -4 8 4 15 8 15 10 0 2 -7 4 -15 4 -8 0 -15
-4 -15 -10z"/>
<path d="M2285 920 c3 -5 10 -10 16 -10 5 0 9 5 9 10 0 6 -7 10 -16 10 -8 0
-12 -4 -9 -10z"/>
<path d="M2438 873 c7 -3 16 -2 19 1 4 3 -2 6 -13 5 -11 0 -14 -3 -6 -6z"/>
<path d="M3132 730 c0 -14 2 -19 5 -12 2 6 2 18 0 25 -3 6 -5 1 -5 -13z"/>
<path d="M1277 583 c-4 -3 -7 -11 -7 -17 0 -6 5 -5 12 2 6 6 9 14 7 17 -3 3
-9 2 -12 -2z"/>
<path d="M1110 410 c0 -8 5 -22 10 -30 9 -13 10 -13 10 0 0 8 -5 22 -10 30 -9
13 -10 13 -10 0z"/>
<path d="M1137 342 c3 -12 9 -25 14 -28 14 -8 11 10 -6 32 -13 18 -14 18 -8
-4z"/>
<path d="M2065 350 c3 -5 8 -10 11 -10 2 0 4 5 4 10 0 6 -5 10 -11 10 -5 0 -7
-4 -4 -10z"/>
</g>
</svg>
